<svg width="104" height="54" viewBox="0 0 104 54" fill="none" xmlns="http://www.w3.org/2000/svg">
<path d="M17.0277 17.7499C17.3495 17.1526 17.8137 16.6434 18.3797 16.2673L27.8774 9.65918L18.1459 25.6923C18.1459 25.6923 17.2956 24.2606 16.9639 23.5362C16.5507 22.6253 16.3423 21.6355 16.3533 20.636C16.3643 19.6365 16.5946 18.6514 17.0277 17.7499ZM13.1079 28.81C13.2152 30.3432 13.6499 31.8359 14.3832 33.1881C15.1163 34.5404 16.1311 35.7209 17.3594 36.6507L27.8646 43.9493C27.8646 43.9493 21.2919 34.5116 15.7481 25.1205C15.1868 24.1283 14.8095 23.0435 14.6342 21.9181C14.5566 21.4085 14.5566 20.89 14.6342 20.3804C14.4896 20.6473 14.2091 21.1937 14.2091 21.1937C13.6469 22.336 13.264 23.5574 13.0739 24.8155C12.9644 26.1453 12.9758 27.4822 13.1079 28.81ZM39.8919 30.0807C39.5517 29.3564 38.71 27.9246 38.71 27.9246L28.9955 43.9493L38.4932 37.3454C39.0591 36.9692 39.5234 36.4601 39.8452 35.8629C40.2783 34.9613 40.5085 33.9762 40.5196 32.9768C40.5306 31.9772 40.3222 30.9874 39.9089 30.0765L39.8919 30.0807ZM43.7479 24.8027C43.6406 23.2695 43.2059 21.7768 42.4727 20.4245C41.7395 19.0723 40.7248 17.8917 39.4965 16.962L29.0082 9.65918C29.0082 9.65918 35.5766 19.0969 41.1248 28.488C41.6845 29.4805 42.0604 30.5653 42.2344 31.6904C42.312 32.2 42.312 32.7185 42.2344 33.2281C42.379 32.9612 42.6596 32.4147 42.6596 32.4147C43.2217 31.2725 43.6046 30.051 43.7946 28.793C43.9056 27.4633 43.8956 26.1264 43.765 24.7985L43.7479 24.8027Z" fill="#14182E"/>
<path d="M61.5163 34.4039H51.5713V18.6416H61.5163V21.6144H53.8169L54.7794 20.7162V25.0363H60.7677V27.8594H54.7794V32.3293L53.8169 31.4311H61.5163V34.4039Z" fill="#14182E"/>
<path d="M67.3466 34.4039H64.1599V18.6416H67.3466L75.217 30.5328H74.2546V18.6416H77.4199V34.4039H74.2546L66.3628 22.5341H67.3466V34.4039Z" fill="#14182E"/>
<path d="M79.5067 23.151C79.5067 22.2099 79.7491 21.383 80.2339 20.6701C80.7329 19.9429 81.4102 19.3726 82.2657 18.9591C83.1354 18.5456 84.1264 18.3389 85.2385 18.3389C86.3506 18.3389 87.3059 18.5385 88.1044 18.9377C88.9171 19.3227 89.5444 19.8716 89.9864 20.5845C90.4427 21.2974 90.6708 22.1458 90.6708 23.1296H87.4841C87.4699 22.5307 87.256 22.0602 86.8425 21.718C86.4433 21.3758 85.8944 21.2047 85.1957 21.2047C84.44 21.2047 83.8341 21.3687 83.3778 21.6966C82.9358 22.0246 82.7148 22.4737 82.7148 23.044C82.7148 23.5573 82.8503 23.9565 83.1212 24.2417C83.4063 24.5126 83.8412 24.7122 84.4258 24.8405L86.8425 25.3538C88.2255 25.639 89.2521 26.1309 89.9223 26.8295C90.5924 27.5282 90.9275 28.4906 90.9275 29.7168C90.9275 30.7149 90.6851 31.5917 90.2003 32.3474C89.7155 33.0888 89.024 33.6663 88.1257 34.0798C87.2417 34.479 86.2009 34.6786 85.0032 34.6786C83.8626 34.6786 82.8574 34.4861 81.9876 34.1012C81.1322 33.7019 80.4692 33.1459 79.9986 32.433C79.5281 31.7058 79.2857 30.8646 79.2715 29.9093H82.4795C82.4795 30.5081 82.7006 30.9786 83.1426 31.3208C83.5988 31.6488 84.2262 31.8127 85.0246 31.8127C85.8516 31.8127 86.5075 31.6559 86.9922 31.3422C87.477 31.0143 87.7194 30.5794 87.7194 30.0376C87.7194 29.5528 87.5982 29.1821 87.3558 28.9255C87.1134 28.6546 86.7071 28.4621 86.1367 28.348L83.6986 27.8347C82.3156 27.5496 81.2676 27.0149 80.5547 26.2307C79.8561 25.4465 79.5067 24.4199 79.5067 23.151Z" fill="#14182E"/>
</svg>
