<svg width="79" height="24" viewBox="0 0 79 24" fill="none" xmlns="http://www.w3.org/2000/svg">
<path d="M4.63065 18.1883C4.69045 12.6709 10.5644 11.5047 9.90674 5.47629C9.71713 3.74075 8.87839 1.68374 7.17631 0.0377587C7.08741 -0.0483384 6.93952 0.0233648 6.95073 0.146514C7.46408 5.68447 3.55135 8.30978 1.79214 10.6176C-2.10884 15.7352 0.758501 22.2973 6.54122 23.166C6.66909 23.1851 6.74732 23.0303 6.65548 22.9395C5.46834 21.7645 4.63038 20.2731 4.63038 18.1883H4.63065Z" fill="black"/>
<path d="M12.1965 9.35507C12.1186 9.28894 11.9987 9.33137 11.9793 9.43158C11.8391 10.1471 11.393 11.3284 9.96164 13.3992C6.25496 18.761 8.04595 21.1437 9.66421 22.9356C10.0211 23.3596 9.84297 22.8414 10.6016 22.3166C11.6205 21.6119 12.0528 21.5228 13.0185 20.6653C14.1199 19.5633 15.0137 17.8284 15.1002 16.0712C15.2884 12.252 13.0385 10.0687 12.1965 9.35507Z" fill="black"/>
<path fill-rule="evenodd" clip-rule="evenodd" d="M28.9014 11.547V4.80566H31.0886C31.5557 4.80566 31.9343 5.19393 31.9343 5.67304V21.7381H29.7468C29.2798 21.7381 28.9014 21.3496 28.9014 20.8708V14.2662H22.4201V21.7381H20.2326C19.7659 21.7381 19.3872 21.3496 19.3872 20.8708V4.80566H21.5746C22.0417 4.80566 22.4201 5.19393 22.4201 5.67304V11.547H28.9014ZM41.8829 16.8252V8.79223V8.79196H44.124C44.6002 8.79196 44.9864 9.18072 44.9864 9.66037V16.9659C44.9864 19.5959 42.8488 21.7475 40.2362 21.7475H38.9657C36.3533 21.7475 34.2155 19.5959 34.2155 16.9661V8.79196H34.2158H36.4568C36.9334 8.79196 37.3195 9.18072 37.3195 9.66037V16.6795C37.3195 18.3584 39.1327 19.6315 40.8852 18.6122C41.5128 18.2471 41.8829 17.5552 41.8829 16.8252ZM76.3175 21.7378H78.5115V10.3447C78.5115 9.86434 78.1316 9.47505 77.6635 9.47505H75.4697V20.8679C75.4697 21.3482 75.8492 21.7378 76.3175 21.7378ZM78.7011 6.49511C78.7011 7.42824 77.9435 8.18456 77.0092 8.18456C76.0746 8.18456 75.3171 7.42824 75.3171 6.49511C75.3171 5.562 76.0746 4.80566 77.0092 4.80566C77.9435 4.80566 78.7011 5.562 78.7011 6.49511ZM55.8822 16.3663C55.8822 17.9097 54.636 18.9372 53.1129 18.9372C51.5897 18.9372 50.3435 17.9097 50.3435 16.3663V14.1638C50.3435 12.6204 51.5897 11.5928 53.1129 11.5928C54.636 11.5928 55.8822 12.6204 55.8822 14.1638V16.3663ZM53.1129 8.79196C49.8926 8.79196 47.2574 11.1263 47.2574 14.3894V16.1544C47.2574 19.4176 49.8926 21.7381 53.1129 21.7381C56.3334 21.7381 58.9681 19.4176 58.9681 16.1544V14.3894C58.9681 11.1263 56.3334 8.79196 53.1129 8.79196ZM67.1416 18.9392C68.6744 18.9392 69.9289 17.9123 69.9289 16.37V14.1689C69.9289 12.6265 68.6744 11.5997 67.1416 11.5997C65.6085 11.5997 64.3542 12.6265 64.3542 14.1689V16.37C64.3542 17.9123 65.6085 18.9392 67.1416 18.9392ZM64.3382 9.44141C65.1732 9.0285 66.1284 8.80075 67.1416 8.80075C70.3828 8.80075 73.0348 11.1335 73.0348 14.3944V16.1582C73.0348 19.4192 70.3828 21.7381 67.1416 21.7381C63.9002 21.7381 61.2481 19.4192 61.2481 16.1582V4.80566H63.4768C63.9524 4.80566 64.3382 5.19359 64.3382 5.67207V9.44141Z" fill="black"/>
</svg>
