<svg width="75" height="18" viewBox="0 0 75 18" fill="none" xmlns="http://www.w3.org/2000/svg">
<g clip-path="url(#clip0_65_290)">
<path d="M1.35875 17.1514C1.22286 17.0486 1.07229 17.0449 0.914366 17.0779C0.877641 17.0449 0.844587 17.0082 0.807861 16.9751C0.807861 16.8209 0.807861 16.6703 0.807861 16.516C0.807861 16.303 0.807861 16.09 0.807861 15.877C0.965783 15.6897 1.18981 15.8366 1.37344 15.7705C1.92433 15.7705 2.47154 15.7705 3.02243 15.7705C4.25642 15.7742 5.49041 15.7852 6.72073 15.7852C9.28052 15.7852 11.8366 15.7779 14.3964 15.7705C14.8004 15.7705 15.2044 15.7705 15.6782 15.7705C15.5496 15.9431 15.4725 16.046 15.3954 16.1488C15.0502 16.4169 14.76 16.7364 14.4699 17.0596C14.4442 17.0559 14.4185 17.0633 14.3928 17.0743C12.2149 17.0706 10.0371 17.0596 7.85923 17.0596C6.03395 17.0596 4.20501 17.0669 2.37973 17.0743C2.03818 17.0926 1.68561 16.9714 1.35875 17.1514Z" fill="black"/>
<path d="M50.5203 0.0380859C50.7664 0.0380859 51.0087 0.0380859 51.2548 0.0380859C51.9269 0.0380859 52.599 0.0380859 53.2711 0.0380859C53.451 0.0454311 53.631 0.0527763 53.8109 0.0564489C54.4426 0.0601215 54.4426 0.0564489 54.4757 0.691807C54.4353 1.35287 54.4353 1.34553 53.7705 1.35655C52.8744 1.37124 51.9746 1.30146 51.0785 1.39327C50.7994 1.3896 50.5166 1.38593 50.2375 1.38225C50.2155 1.27575 50.1934 1.16924 50.1677 1.06274C50.1677 0.787294 50.1677 0.515522 50.1677 0.240078C50.2008 0.0123778 50.3844 0.0674666 50.5203 0.0380859Z" fill="black"/>
<path d="M24.6791 0.414643C24.6791 0.598273 24.6791 0.781902 24.6791 0.965531C24.7452 1.53846 24.2714 1.28505 24.029 1.38788C23.3533 1.33279 22.6775 1.32912 22.0017 1.39522C21.752 1.31075 21.4913 1.37686 21.2378 1.34748C20.9477 1.31075 20.6319 1.46133 20.3674 1.2373C20.3674 0.903097 20.3674 0.568892 20.3638 0.234686C20.4262 0.00698575 20.6135 0.058402 20.7751 0.058402C21.6124 0.0510568 22.4498 0.0473842 23.2871 0.0400391C23.592 0.0400391 23.9005 0.0400391 24.2053 0.0400391C24.455 0.0437117 24.7305 0.0216761 24.6791 0.414643Z" fill="black"/>
<path d="M60.1525 17.0816C59.2747 17.0743 58.397 17.0743 57.5192 17.0633C57.3686 17.0633 57.1666 17.1367 57.1189 16.887C57.1189 16.7327 57.1189 16.5822 57.1189 16.4279C57.1299 16.2186 57.1373 16.0056 57.1483 15.7962C58.2097 15.7889 59.2747 15.7815 60.3361 15.7705C60.6997 15.844 61.089 15.6787 61.4415 15.877C61.4415 16.09 61.4415 16.303 61.4415 16.516C61.5003 16.9568 61.3203 17.133 60.8686 17.0669C60.6336 17.0376 60.3912 17.0743 60.1525 17.0816Z" fill="black"/>
<path d="M37.4018 0.869577C37.4018 0.715328 37.4018 0.564752 37.4018 0.410503C37.3393 -0.0779511 37.725 0.0873154 37.9563 0.0322266C38.9663 0.0322266 39.9726 0.0322266 40.9825 0.0322266C41.1001 0.0395717 41.2176 0.0616073 41.3314 0.0469169C41.6252 0.00651844 41.7281 0.142404 41.7134 0.410503C41.7134 0.685947 41.7134 0.957719 41.7134 1.23316C41.6987 1.25153 41.695 1.27356 41.706 1.29927C41.2874 1.41679 40.854 1.29192 40.4353 1.37639C39.7302 1.32498 39.0214 1.32131 38.3162 1.38007C38.1804 1.37272 38.0445 1.336 37.9123 1.35803C37.5156 1.42414 37.365 1.25153 37.4018 0.869577Z" fill="black"/>
<path d="M74.1973 16.06C74.1973 16.2436 74.1973 16.4273 74.1973 16.6109C74.2414 16.9855 74.0834 17.0847 73.7052 17.0736C72.5814 17.0443 71.4539 17.0553 70.3264 17.07C70.0436 17.0736 69.8967 16.9965 69.904 16.7064C69.9555 16.5228 69.9518 16.3391 69.904 16.1555C69.8673 15.7515 70.1575 15.7809 70.4182 15.7735C71.4575 15.7735 72.4969 15.7735 73.5399 15.7735C73.7456 15.8947 74.1642 15.5458 74.1973 16.06Z" fill="black"/>
<path d="M0.803872 0.872394C0.803872 0.688764 0.803872 0.505135 0.803872 0.325178C0.789182 0.11584 0.892014 0.0313708 1.09401 0.038716C1.34007 0.038716 1.58246 0.038716 1.82852 0.038716C2.25822 0.038716 2.68424 0.038716 3.11393 0.038716C6.38621 0.038716 9.65481 0.038716 12.9271 0.038716C13.0152 0.0423886 13.107 0.0607515 13.1952 0.0534063C13.9885 -0.0384084 14.712 0.0680967 15.2114 0.787924C15.3547 0.953191 15.4979 1.12213 15.6962 1.3535C15.4648 1.3535 15.3216 1.3535 15.1747 1.3535C13.4266 1.3535 11.6747 1.3535 9.92658 1.35718C9.54831 1.35718 9.16636 1.3131 8.78808 1.39757C8.20047 1.29107 7.60551 1.34983 7.01422 1.3535C5.61864 1.36085 4.22305 1.30209 2.82747 1.38288C2.2472 1.34616 1.6706 1.32779 1.09033 1.38656C0.71573 1.37187 0.851616 1.07071 0.803872 0.872394Z" fill="black"/>
<path d="M34.291 15.7722C34.5444 15.7759 34.7978 15.7832 35.0512 15.7869C35.7086 15.7906 35.7086 15.7869 35.7526 16.4296C35.7122 17.065 35.7122 17.0613 35.0622 17.065C34.1918 17.0687 33.3214 17.076 32.4547 17.0797C29.8471 17.0723 27.2433 17.0503 24.6357 17.076C24.0371 17.0833 23.5707 16.9621 23.2144 16.4737C23.1446 16.3782 23.0381 16.3121 22.9463 16.2313C22.8362 16.0991 22.7223 15.9669 22.5901 15.8126C22.7186 15.7943 22.8178 15.7832 22.9133 15.7686C25.4804 15.7686 28.0512 15.7686 30.6184 15.7686C31.845 15.7759 33.068 15.7759 34.291 15.7722Z" fill="black"/>
<path d="M9.35019 1.78179C11.4583 1.78547 13.5626 1.80016 15.6707 1.78914C16.0343 1.78547 16.3097 1.86994 16.5485 2.14905C16.8239 2.47224 17.1397 2.76237 17.4372 3.07087C17.2389 3.07822 17.0406 3.09291 16.8423 3.09291C13.7903 3.09658 10.7348 3.09291 7.68283 3.09658C7.50288 3.09658 7.31558 3.05618 7.14296 3.14432C6.07791 3.14432 5.00919 3.14432 3.94414 3.14432C3.42263 3.05985 2.90112 3.07087 2.37962 3.14065C2.10417 3.07087 1.8324 3.07822 1.55696 3.13331C1.46147 3.08556 1.36598 3.08556 1.26682 3.14065C0.884874 3.15167 0.756333 2.96069 0.815095 2.59711C0.833458 2.48326 0.80775 2.36206 0.804077 2.24454C0.844475 2.05356 0.726953 1.7671 1.09421 1.78179C1.6451 1.78179 2.19599 1.78179 2.7432 1.78547C4.94676 1.78547 7.14664 1.78547 9.35019 1.78179Z" fill="black"/>
<path d="M2.92675 15.3559C2.37586 15.3559 1.82864 15.3559 1.27775 15.3559C0.598325 15.4293 0.884787 14.9005 0.80399 14.5993C0.741556 14.1586 0.910495 13.9603 1.37324 14.0411C1.45771 14.0558 1.5532 14.0301 1.64501 14.0264C2.16652 14.0264 2.68436 14.0264 3.20586 14.0264C4.1791 14.0337 5.15233 14.0448 6.12557 14.0448C8.45399 14.0411 10.7824 14.0337 13.1108 14.0264C14.4256 14.0264 15.7404 14.0264 17.0552 14.0264C17.158 14.0411 17.2609 14.0521 17.4114 14.0705C17.0882 14.4157 16.7871 14.7315 16.4896 15.0511C16.2619 15.3192 15.9644 15.3632 15.6302 15.3449C15.2813 15.3265 14.9288 15.3485 14.5799 15.3559C13.0264 15.3485 11.4729 15.3375 9.91935 15.3375C7.58726 15.3375 5.25884 15.3485 2.92675 15.3559Z" fill="black"/>
<path d="M35.756 14.5087C35.7045 15.3387 35.7045 15.3387 34.8305 15.3387C34.6799 15.3387 34.533 15.3498 34.3824 15.3534C33.1301 15.3534 31.874 15.3534 30.6217 15.3534C27.9921 15.3534 25.3625 15.3534 22.733 15.3534C22.3804 15.3351 22.0058 15.3828 21.756 15.0413C21.4586 14.7254 21.1611 14.4096 20.8342 14.068C21.0472 14.046 21.2088 14.0313 21.3741 14.0166C23.1443 14.0717 24.9108 14.0497 26.681 14.0276C27.1694 14.0276 27.6579 14.0276 28.15 14.0276C29.0976 14.0276 30.0451 14.0276 30.9926 14.0276C32.3662 14.0276 33.7434 14.0276 35.1169 14.0276C35.4291 14.0533 35.8368 13.9542 35.756 14.5087Z" fill="black"/>
<path d="M73.6312 15.3549C72.5295 15.3549 71.4277 15.3549 70.3296 15.3549C70.1753 15.3108 69.955 15.4063 69.9036 15.1492C69.9183 14.782 69.9329 14.4111 69.9513 14.0438C71.0494 14.0328 72.1512 14.0254 73.2493 14.0144C73.5247 14.0144 73.7965 14.0107 74.072 14.0107C74.3143 14.2348 74.1087 14.5286 74.1968 14.7783C74.2666 15.2227 74.083 15.421 73.6312 15.3549Z" fill="black"/>
<path d="M37.5477 3.34038C37.3567 3.02454 37.4522 2.67197 37.4008 2.33776C37.3016 1.58856 37.8745 1.84931 38.2308 1.7832C38.9947 1.7832 39.7586 1.7832 40.5261 1.7832C40.9154 1.79422 41.3011 1.80524 41.6903 1.81626C41.6977 2.22391 41.7014 2.63157 41.7087 3.03923C41.5508 3.16042 41.3635 3.12737 41.1835 3.13104C40.0781 3.13839 38.9726 3.14573 37.8709 3.14941C37.7313 3.12003 37.6505 3.17879 37.6211 3.31835C37.5954 3.32569 37.566 3.32936 37.5403 3.33671C37.5366 3.34038 37.5477 3.34038 37.5477 3.34038Z" fill="black"/>
<path d="M24.6791 2.33666C24.6607 2.60476 24.6424 2.87286 24.624 3.14463C24.4845 3.14463 24.3412 3.1483 24.2017 3.1483C23.0889 3.14463 21.9724 3.12627 20.8596 3.14463C20.4887 3.15198 20.3969 3.02711 20.4042 2.67454C20.4226 1.80414 20.4079 1.80414 21.2709 1.80046C21.5464 1.80046 21.8182 1.78944 22.0936 1.7821C22.7657 1.7821 23.4378 1.7821 24.1098 1.7821C24.5395 1.72334 24.7526 1.88493 24.6791 2.33666Z" fill="black"/>
<path d="M57.1195 2.33667C57.0718 1.91065 57.2444 1.77476 57.6851 1.78578C58.9962 1.81516 60.3073 1.78945 61.6148 1.78211C64.428 1.78211 67.2412 1.78578 70.0544 1.78578C70.7558 1.78578 71.461 1.78211 72.1624 1.78211C72.4048 1.77109 72.5885 1.86658 72.7537 2.04653C73.0182 2.33667 73.3046 2.60844 73.5837 2.88021C73.8371 3.12628 73.6131 3.11893 73.4478 3.14464C72.8382 3.0565 72.2322 3.0822 71.6226 3.13729C71.4463 3.06017 71.2627 3.08955 71.079 3.09322C69.0958 3.10424 67.109 3.13362 65.1258 3.12995C63.5686 3.12995 62.0114 3.15933 60.4542 3.10424C59.5875 3.07486 58.7171 3.03813 57.8504 3.13729C57.1636 3.03813 57.1636 3.03813 57.1195 2.33667Z" fill="black"/>
<path d="M61.9006 1.3956C60.5124 1.30745 59.1278 1.37356 57.7396 1.3552C57.1373 1.34785 57.1373 1.3552 57.1373 0.734531C57.1373 0.598645 57.1262 0.462759 57.1189 0.323201C57.1262 0.161607 57.1593 0.0404118 57.3723 0.0514295C57.6257 0.0624473 57.8791 0.0440844 58.1325 0.0404118C59.0911 0.0440844 60.0496 0.0551021 61.0082 0.0551021C63.6855 0.0514295 66.3665 0.0440844 69.0438 0.0404118C69.2091 0.0440844 69.3853 0.0844828 69.5433 0.0514295C70.7332 -0.198306 71.3759 0.558247 71.9966 1.36254C71.3135 1.37356 70.634 1.38091 69.9509 1.39192C69.8297 1.37723 69.7122 1.34785 69.591 1.34785C67.1487 1.34418 64.7028 1.34418 62.2605 1.34785C62.1393 1.34785 62.0218 1.37723 61.9006 1.3956Z" fill="black"/>
<path d="M73.4474 3.51539C74.1783 3.55579 74.1783 3.55579 74.182 4.31234C74.182 4.47761 74.182 4.64288 74.182 4.80814C73.8771 4.82651 73.5723 4.84487 73.2712 4.85956C72.7827 4.79712 72.2906 4.81182 71.8021 4.85589C71.3908 4.84487 70.9831 4.83385 70.5718 4.82283C70.2523 4.81549 69.8593 4.93301 69.9254 4.36009C69.9364 4.27562 69.8042 4.15809 69.7161 4.0773C69.5508 3.93039 69.3709 3.80553 69.1946 3.66964C69.2313 3.61822 69.268 3.56681 69.3048 3.51172C70.076 3.51172 70.8472 3.51172 71.6222 3.51172C72.2245 3.51539 72.8378 3.51539 73.4474 3.51539Z" fill="black"/>
<path d="M74.197 13.0422C74.1309 13.2259 74.2741 13.4462 74.0905 13.6078C73.815 13.6078 73.5396 13.6078 73.2641 13.6078C72.5333 13.6041 71.7988 13.6078 71.0679 13.5895C70.708 13.5784 70.26 13.7474 70.0102 13.5087C69.7972 13.3067 69.9698 12.8696 69.9368 12.5391C69.9331 12.495 69.9221 12.451 69.9111 12.4032C70.058 12.2416 70.2526 12.3041 70.4289 12.3004C71.4976 12.2857 72.5663 12.282 73.6351 12.2747C74.0978 12.2086 74.2594 12.4179 74.1823 12.8586C74.1749 12.921 74.1933 12.9835 74.197 13.0422Z" fill="black"/>
<path d="M50.5203 3.1455C50.4064 3.11612 50.2962 3.08674 50.1824 3.05736C50.1824 2.95085 50.186 2.84802 50.186 2.74152C50.1897 1.82704 50.1897 1.82704 51.0711 1.7793C52.0407 1.78297 53.0103 1.81235 53.9762 1.78297C54.3912 1.77195 54.5197 1.90049 54.4646 2.28979C54.4426 2.45138 54.4683 2.62032 54.4756 2.78559C54.483 3.05001 54.3324 3.08674 54.101 3.09408C53.3335 3.10877 52.5659 3.03165 51.802 3.13448C51.376 3.08674 50.9463 3.06103 50.5203 3.1455Z" fill="black"/>
<path d="M24.2062 3.51669C24.5624 3.48364 24.6909 3.61218 24.6762 3.9978C24.6432 4.78741 24.6689 4.79108 23.8426 4.84984C22.873 4.8425 21.8998 4.80577 20.9339 4.83515C20.4968 4.84617 20.372 4.69559 20.4197 4.29528C20.4491 4.04187 20.4418 3.78112 20.4491 3.52404C21.6978 3.52404 22.9501 3.52036 24.2062 3.51669Z" fill="black"/>
<path d="M40.0527 16.3361C39.9756 16.1047 39.7479 16.0166 39.5386 15.8403C39.9793 15.7228 40.398 15.8293 40.8019 15.7705C41.3051 15.7742 41.8046 15.7852 42.3077 15.7852C45.4441 15.7815 48.5805 15.7742 51.7169 15.7705C51.8785 15.7815 52.0401 15.7889 52.2604 15.8036C52.0254 16.0643 51.8197 16.2883 51.6177 16.516C51.2248 17.0302 50.6922 17.078 50.0862 17.0743C47.229 17.0486 44.3717 17.0559 41.5181 17.0706C41.0627 17.0743 40.6844 17.0118 40.4016 16.6262C40.3098 16.5087 40.1666 16.4316 40.0527 16.3361Z" fill="black"/>
<path d="M61.4167 14.0571C61.424 14.3582 61.435 14.6631 61.4424 14.9642C61.4608 15.236 61.3616 15.3756 61.0568 15.3425C60.8511 15.3205 60.6381 15.3498 60.4288 15.3535C59.518 15.3462 58.6072 15.3094 57.7 15.3462C57.2373 15.3645 57.0647 15.2213 57.1198 14.7769C57.1271 14.641 57.1491 14.5015 57.1344 14.3656C57.1087 14.0975 57.2226 14.0277 57.476 14.0314C58.7908 14.0534 60.1019 14.0534 61.4167 14.0571Z" fill="black"/>
<path d="M53.5352 14.0166C53.6784 14.0313 53.8253 14.0497 54.0126 14.0717C53.649 14.4536 53.3222 14.8025 52.9953 15.1478C52.7125 15.4599 52.3269 15.291 51.9927 15.3571C49.8442 15.3498 47.6994 15.3424 45.551 15.3387C43.9387 15.3387 42.3228 15.3498 40.7105 15.3571C40.6187 15.3498 40.5232 15.324 40.4387 15.3424C39.2304 15.6068 38.5143 14.9017 37.8716 14.0533C38.3343 14.0423 38.7971 14.0276 39.2598 14.0166C40.3873 14.0717 41.5148 14.0533 42.6423 14.0276C44.6879 14.0276 46.7372 14.0276 48.7828 14.0276C50.3621 14.0497 51.9486 14.0717 53.5352 14.0166Z" fill="black"/>
<path d="M10.5401 7.00488C12.8722 7.00488 15.2042 7.00488 17.5363 7.00488C17.5547 7.04161 17.5767 7.07833 17.5951 7.11506C17.1911 7.51537 16.7982 7.91936 16.3832 8.30498C16.2546 8.42617 16.06 8.36007 15.8947 8.36007C11.113 8.36007 6.33495 8.3564 1.55324 8.3564C1.40266 8.3564 1.24841 8.36741 1.09784 8.37109C0.991332 8.34538 0.829738 8.39312 0.826066 8.20949C0.81872 7.8606 0.81872 7.51537 0.826066 7.16648C0.829738 6.98285 0.991332 7.03059 1.09784 7.00488C3.48135 7.00488 5.86486 7.00488 8.24837 7.00488C9.01226 7.00488 9.77616 7.00488 10.5401 7.00488Z" fill="black"/>
<path d="M1.09375 8.75781C1.34716 8.86799 1.60424 8.76149 1.85765 8.76516C6.55856 8.7725 11.2631 8.76883 15.9641 8.75781C16.2468 8.75781 16.4525 8.83126 16.6472 9.03693C16.9593 9.36012 17.3082 9.65392 17.6388 9.95875C17.613 10.0138 17.5837 10.0689 17.558 10.1203C15.2773 10.1203 13.0003 10.1203 10.7196 10.1203C9.58844 10.1203 8.45729 10.1203 7.32613 10.1203C5.6147 10.1203 3.90328 10.1203 2.18818 10.1203C1.75849 10.1203 1.33247 10.1203 0.902773 10.1203C0.711798 9.71636 0.829321 9.29034 0.825649 8.87534C0.832994 8.73945 0.99826 8.78352 1.09375 8.75781Z" fill="black"/>
<path d="M2.19939 5.27809C3.02205 5.28176 3.84471 5.29278 4.66737 5.28176C4.95383 5.27809 5.064 5.35521 5.06768 5.66738C5.07502 6.63327 5.08971 6.6296 4.1128 6.6296C3.10652 6.6296 2.10023 6.63694 1.09761 6.64062C1.03518 6.63327 0.958051 6.64429 0.917653 6.61124C0.723006 6.44597 0.792785 5.46172 1.00579 5.27441C1.40243 5.27809 1.79907 5.27809 2.19939 5.27809Z" fill="black"/>
<path d="M1.27809 3.51988C1.3699 3.51988 1.46171 3.51988 1.5572 3.52356C1.83265 3.52356 2.10809 3.51988 2.37986 3.51988C2.86832 3.51988 3.35677 3.51988 3.8489 3.51988C3.97009 3.52356 4.09129 3.52356 4.21248 3.53825C4.48058 3.56396 4.85519 3.40603 4.99474 3.61904C5.17837 3.90183 5.06085 4.29847 5.04983 4.6437C5.04249 4.90445 4.81112 4.82365 4.66054 4.82733C3.83788 4.84569 3.01522 4.85303 2.19623 4.86038C1.79592 4.81631 1.39928 4.80529 0.998969 4.86772C0.852065 4.71715 0.73087 3.74759 0.852065 3.60435C0.965916 3.4648 1.13853 3.56396 1.27809 3.51988Z" fill="black"/>
<path d="M1.09398 11.8635C0.994821 11.8304 0.814864 11.8928 0.825882 11.7055C0.847918 11.3089 0.719377 10.9012 0.903007 10.5156C1.3327 10.5817 1.75872 10.5634 2.18841 10.5193C2.84213 10.5303 3.49953 10.545 4.15325 10.5487C5.08241 10.5524 5.06772 10.5487 5.06405 11.4705C5.06038 11.779 4.95754 11.8561 4.66741 11.8524C3.93656 11.8378 3.20205 11.8561 2.4712 11.8598C2.01213 11.8635 1.55305 11.8635 1.09398 11.8635Z" fill="black"/>
<path d="M3.20261 13.6086C2.68111 13.6086 2.16327 13.6086 1.64176 13.6086C0.811759 13.5682 0.811759 13.5682 0.819104 12.7198C0.819104 12.5215 0.749325 12.2718 1.09088 12.2754C1.54995 12.3195 2.00902 12.3085 2.4681 12.2754C3.01164 12.2828 3.55518 12.2975 4.09873 12.2975C4.99116 12.3011 4.99116 12.2975 5.09032 13.1348C5.09767 13.4911 4.95811 13.6343 4.57249 13.6012C4.12076 13.5645 3.66169 13.6049 3.20261 13.6086Z" fill="black"/>
<path d="M23.7462 12.2754C23.805 12.2827 23.8674 12.2938 23.9262 12.2938C25.1014 12.3268 25.443 12.5178 26.2142 13.6049C24.5652 13.6049 22.9603 13.6049 21.359 13.6049C21.124 13.6012 20.889 13.5902 20.6539 13.5938C20.5107 13.5938 20.3858 13.5865 20.3638 13.4065C20.3674 13.0503 20.3711 12.6941 20.3748 12.3378C21.3003 12.2497 22.2294 12.3231 23.1549 12.2974C23.3533 12.2938 23.5479 12.2864 23.7462 12.2754Z" fill="black"/>
<path d="M13.3901 12.9709C13.4489 12.9048 13.5627 12.8314 13.5554 12.7763C13.4856 12.2401 13.8418 12.3062 14.1797 12.3025C14.7086 12.2952 15.2374 12.3503 15.7663 12.2695C16.4641 12.2878 17.1655 12.2291 17.8633 12.3209C17.8707 12.6845 17.878 13.0481 17.8853 13.4153C17.7238 13.7899 17.3822 13.5071 17.1472 13.6136C15.803 13.6136 14.4588 13.6136 13.111 13.6136C13.0449 13.5622 12.7915 13.6944 12.9604 13.408C13.0743 13.2097 13.2946 13.1619 13.3901 12.9709Z" fill="black"/>
<path d="M37.6805 4.86471C37.4785 4.839 37.4087 4.72883 37.4161 4.52683C37.4271 4.25506 37.4087 3.98329 37.4014 3.71152C37.4197 3.57563 37.4344 3.43975 37.5446 3.34059L37.5336 3.33691C37.6621 3.52789 37.8531 3.53523 38.0588 3.53156C39.1422 3.52422 40.2256 3.53891 41.309 3.52422C41.6102 3.52054 41.7313 3.60869 41.6946 3.90984C41.6799 4.03103 41.6726 4.1559 41.6946 4.27342C41.7791 4.71046 41.5881 4.88675 41.1658 4.86104C40.0089 4.80962 38.8447 4.80962 37.6805 4.86471Z" fill="black"/>
<path d="M72.7026 8.34905C67.6344 8.35272 62.5662 8.3564 57.4944 8.36741C57.2153 8.36741 57.1308 8.28294 57.1271 8.00383C57.1088 7.0159 57.0978 7.0159 58.104 7.0159C62.7756 7.0159 67.4471 7.01957 72.1186 7.01957C72.2545 7.01957 72.3941 7.01223 72.53 7.00488C72.989 7.00856 73.4444 7.00856 73.9035 7.01223C73.9329 7.11873 73.8484 7.18484 73.808 7.26564C73.4408 7.62555 73.0698 7.98914 72.7026 8.34905Z" fill="black"/>
<path d="M73.8149 10.1197C71.5526 10.1197 69.2902 10.1197 67.0279 10.1197C66.2016 10.1197 65.3789 10.1197 64.5526 10.1197C63.7593 10.1197 62.9624 10.1197 62.1691 10.1197C60.656 10.1161 59.1465 10.0977 57.6334 10.1161C57.2331 10.1197 57.1046 10.0243 57.1193 9.61293C57.1523 8.80864 57.1266 8.80496 57.9199 8.80496C62.6833 8.80496 67.4466 8.80496 72.2136 8.80864C72.3826 8.80864 72.5478 8.80129 72.7168 8.79395C73.1134 9.17589 73.5064 9.55417 73.903 9.93612C73.9618 10.039 73.9581 10.1124 73.8149 10.1197Z" fill="black"/>
<path d="M71.887 5.27832C72.3461 5.27832 72.8052 5.27832 73.2642 5.27832C74.2815 5.33341 74.2889 5.35177 74.1897 6.39111C74.1714 6.60412 74.0685 6.63351 73.9069 6.64452C73.4479 6.64452 72.9888 6.64452 72.5297 6.64452C71.5051 6.64452 70.4804 6.64452 69.3052 6.64452C69.7165 6.23687 70.0434 5.94306 69.9662 5.43624C69.9405 5.25996 70.1646 5.29668 70.2931 5.29301C70.822 5.28199 71.3545 5.28199 71.887 5.27832Z" fill="black"/>
<path d="M73.6318 11.8669C72.5484 11.8632 71.465 11.8448 70.3816 11.8595C70.0511 11.8632 69.8711 11.7861 69.9482 11.4335C70.029 11.0479 69.6728 10.8936 69.4414 10.53C70.9655 10.53 72.3905 10.53 73.8155 10.53C74.1019 10.5117 74.2268 10.6402 74.1827 10.9304C74.1644 11.0479 74.1644 11.1727 74.1827 11.2903C74.2635 11.742 74.0909 11.9366 73.6318 11.8669Z" fill="black"/>
<path d="M37.6837 8.37432C37.5074 8.36331 37.4009 8.2972 37.4156 8.09521C37.4266 7.92994 37.4377 7.761 37.4156 7.59941C37.3495 7.16604 37.4927 6.94201 37.9592 7.00445C39.0609 7.00445 40.159 7.00445 41.2608 7.00445C41.6171 6.96772 41.7566 7.12564 41.7015 7.47821C41.6575 7.77202 41.775 8.08052 41.6244 8.36698C40.3133 8.37065 38.9985 8.37065 37.6837 8.37432Z" fill="black"/>
<path d="M51.4384 8.37476C51.0197 8.30865 50.5864 8.45556 50.175 8.27927C50.1787 7.97812 50.175 7.67697 50.1824 7.37949C50.1861 7.23626 50.1383 7.06732 50.3403 7.00488C50.5533 7.00488 50.77 7.00488 50.983 7.00488C51.4421 7.00488 51.9012 7.00488 52.3602 7.00488C52.9552 7.00856 53.5502 7.02325 54.1451 7.0159C54.3765 7.01223 54.461 7.08201 54.472 7.3244C54.5234 8.36374 54.5307 8.36007 53.5024 8.36007C52.812 8.36374 52.1252 8.37109 51.4384 8.37476Z" fill="black"/>
<path d="M37.9593 6.64452C37.4892 6.70696 37.3203 6.47558 37.4268 6.05324C37.4929 5.79248 37.1661 5.3885 37.6839 5.27832C38.8444 5.27832 40.005 5.27832 41.1655 5.27832C41.4042 5.32239 41.7972 5.20854 41.687 5.66027C41.6025 6.00549 42.0506 6.60412 41.2573 6.6482C40.1592 6.64452 39.0574 6.64452 37.9593 6.64452Z" fill="black"/>
<path d="M41.7206 9.2022C41.7169 9.23158 41.7059 9.26096 41.7059 9.29034C41.6765 10.0873 41.6765 10.0873 40.8943 10.124C39.8843 10.124 38.8744 10.124 37.8644 10.124C37.4898 10.1681 37.3392 9.99547 37.4163 9.63923C37.4824 9.33808 37.2107 8.93777 37.6808 8.75781C38.9956 8.76149 40.3067 8.76516 41.6215 8.76516C41.7537 8.88635 41.6765 9.05529 41.7206 9.2022Z" fill="black"/>
<path d="M54.0089 5.27872C54.4018 5.23097 54.479 5.42195 54.4679 5.78186C54.4422 6.62656 54.4606 6.62656 53.6306 6.63023C53.2046 6.63023 52.7786 6.64125 52.3525 6.64492C51.8935 6.64492 51.4344 6.64492 50.979 6.64492C50.766 6.64492 50.5493 6.64492 50.3363 6.64492C50.1967 6.46496 50.1012 5.48805 50.2224 5.36319C50.3546 5.22363 50.5419 5.32646 50.6999 5.28239C50.7623 5.3485 50.8247 5.34115 50.8908 5.28606C51.2838 5.28239 51.6768 5.28239 52.0734 5.27872C52.7198 5.36319 53.3662 5.36319 54.0089 5.27872Z" fill="black"/>
<path d="M51.8049 3.52097C52.5688 3.52464 53.3327 3.53933 54.0929 3.53198C54.361 3.52831 54.4638 3.59809 54.4675 3.88823C54.4822 4.83575 54.4932 4.83208 53.542 4.83575C53.0535 4.83943 52.5688 4.85412 52.0803 4.86513C51.713 4.81372 51.3495 4.81739 50.9822 4.86146C50.9198 4.86513 50.8537 4.86513 50.7912 4.86881C50.6149 4.76597 50.2367 4.98266 50.2403 4.65947C50.244 4.28487 49.9869 3.83314 50.4313 3.52464C50.8867 3.51729 51.3458 3.51729 51.8049 3.52097Z" fill="black"/>
<path d="M57.8577 3.5166C58.9117 3.52027 59.9657 3.53864 61.0161 3.52395C61.3356 3.52027 61.4348 3.61209 61.4311 3.93528C61.4237 4.82772 61.4384 4.82772 60.5386 4.82772C59.5911 4.82772 58.6436 4.79834 57.6997 4.83873C57.2296 4.8571 57.0497 4.71754 57.1305 4.25846C57.1415 4.1997 57.1231 4.13727 57.1158 4.07851C57.0019 3.41377 57.4867 3.54231 57.8577 3.5166Z" fill="black"/>
<path d="M17.8812 5.72321C17.8335 6.63034 17.8335 6.63034 16.9116 6.63034C15.674 6.63034 14.44 6.63034 13.2023 6.63034C13.1729 6.63034 13.1436 6.623 13.1068 6.61565C13.0664 6.43937 13.2244 6.38061 13.3125 6.29981C13.4888 6.13454 13.6136 5.96193 13.5733 5.70485C13.5145 5.34126 13.7091 5.27516 14.0287 5.27883C14.9431 5.28985 15.8576 5.27516 16.7757 5.27148C16.9851 5.27516 17.1944 5.30086 17.4038 5.27883C17.7416 5.24945 17.9179 5.3633 17.8812 5.72321Z" fill="black"/>
<path d="M23.9306 7.00488C24.6652 7.04528 24.6688 7.04528 24.6652 7.80918C24.6652 7.98914 24.6578 8.17277 24.6541 8.35272C24.4448 8.36007 24.2318 8.36741 24.0225 8.37476C22.9574 8.37109 21.896 8.35272 20.831 8.37109C20.46 8.37843 20.3609 8.24989 20.3719 7.90099C20.4013 6.86532 20.2654 7.03794 21.235 7.01957C21.6463 7.01223 22.0539 7.00856 22.4653 7.00488C22.9501 7.00488 23.4385 7.00488 23.9306 7.00488Z" fill="black"/>
<path d="M16.6841 4.85217C15.7843 4.84483 14.8882 4.83014 13.9884 4.83014C13.7313 4.83014 13.5661 4.81545 13.5624 4.47389C13.5587 4.08093 13.1694 3.93035 12.9344 3.68429C12.9307 3.4823 13.085 3.53371 13.1951 3.53004C14.6421 3.52637 16.0891 3.53371 17.5325 3.52637C17.7528 3.52637 17.852 3.57411 17.8667 3.82752C17.9218 4.8081 17.9328 4.8081 16.9522 4.82646C16.8677 4.83014 16.7759 4.84483 16.6841 4.85217Z" fill="black"/>
<path d="M15.7703 11.864C15.146 11.8603 14.5216 11.8493 13.8973 11.8493C13.7063 11.8493 13.5484 11.8236 13.5851 11.5849C13.6475 11.1772 13.4676 10.8834 13.0195 10.5859C14.7383 10.5859 16.3065 10.5859 17.8747 10.5859C17.8747 10.9055 17.86 11.225 17.8747 11.5408C17.8857 11.7869 17.7829 11.853 17.5515 11.8493C16.9565 11.8456 16.3616 11.8603 15.7703 11.864Z" fill="black"/>
<path d="M23.839 5.28418C24.6654 5.31723 24.614 5.32091 24.6801 6.12153C24.7352 6.82299 24.2577 6.58428 23.9309 6.64671C23.4718 6.64671 23.0127 6.64671 22.5536 6.64671C21.9623 6.64304 21.3674 6.62467 20.7761 6.63569C20.497 6.64304 20.4052 6.54388 20.4125 6.26843C20.4382 5.12259 20.284 5.3613 21.2976 5.32825C22.146 5.30254 22.9943 5.4017 23.839 5.28418Z" fill="black"/>
<path d="M24.6794 9.01685C24.6721 9.37676 24.6611 9.73667 24.6537 10.0966C24.3195 10.1039 23.989 10.115 23.6548 10.1223C22.7109 10.1186 21.7708 10.1003 20.8269 10.115C20.5074 10.1186 20.4009 10.0231 20.4119 9.70362C20.445 8.62755 20.2797 8.83689 21.297 8.80751C22.2078 8.7818 23.1186 8.87729 24.0257 8.75977C24.2351 8.76711 24.4407 8.77446 24.6501 8.7818C24.6574 8.85893 24.6684 8.93605 24.6794 9.01685Z" fill="black"/>
<path d="M23.6551 10.5289C23.7285 10.5363 23.8057 10.5436 23.8791 10.5546C24.1289 10.5877 24.4888 10.4298 24.6026 10.6391C24.7716 10.9476 24.654 11.3442 24.654 11.7041C24.654 11.851 24.5328 11.851 24.4263 11.8547C24.1986 11.8621 23.9746 11.8657 23.7469 11.8694C22.7847 11.8657 21.8225 11.8474 20.8603 11.8621C20.5334 11.8657 20.4049 11.796 20.4085 11.436C20.4195 10.5583 20.4012 10.562 21.2753 10.5583C22.0685 10.551 22.8618 10.5399 23.6551 10.5289Z" fill="black"/>
<path d="M41.7238 12.2765C41.9736 12.2618 42.1425 12.4013 42.3078 12.5703C42.6163 12.8824 42.9395 13.1799 43.3398 13.5619C43.035 13.5839 42.8366 13.5986 42.6383 13.6133C41.5072 13.6133 40.376 13.6133 39.2448 13.6133C38.7858 13.6133 38.3267 13.6133 37.8676 13.6133C37.5297 13.6463 37.3535 13.5251 37.4196 13.1579C37.4379 13.055 37.4416 12.9412 37.4196 12.842C37.3278 12.3903 37.5444 12.2471 37.9558 12.2801C39.2081 12.3205 40.4678 12.3169 41.7238 12.2765Z" fill="black"/>
<path d="M40.9015 10.5225C41.7021 10.5959 41.7021 10.5959 41.7021 11.4149C41.7021 11.5508 41.7021 11.6867 41.7021 11.8226C40.4534 11.8372 39.2047 11.8519 37.9561 11.8666C37.5447 11.9107 37.328 11.7711 37.4162 11.3194C37.4346 11.2166 37.4346 11.1064 37.4162 11.0036C37.3611 10.651 37.5117 10.5004 37.8569 10.5261C38.8705 10.5812 39.8878 10.5775 40.9015 10.5225Z" fill="black"/>
<path d="M48.7791 13.6085C48.7093 13.5792 48.5661 13.5902 48.6909 13.4543C49.0141 13.0944 49.3887 12.7859 49.6899 12.4003C49.8625 12.1799 50.1857 12.3488 50.4281 12.2754C50.5933 12.2827 50.7586 12.2974 50.9239 12.3011C52.1028 12.3084 53.2853 12.3121 54.4642 12.3195C54.4679 12.7124 54.4753 13.1091 54.4789 13.502C54.2219 13.704 53.917 13.5314 53.6416 13.6085C52.022 13.6085 50.3987 13.6085 48.7791 13.6085Z" fill="black"/>
<path d="M61.4415 12.4039C61.4379 12.4186 61.4379 12.4333 61.4342 12.448C61.3901 12.8079 61.5811 13.289 61.3497 13.5057C61.0816 13.7554 60.5932 13.5828 60.2039 13.5902C59.3335 13.6049 58.4631 13.5975 57.589 13.5902C57.4311 13.5902 57.2474 13.6563 57.1152 13.502C57.1189 13.1091 57.1226 12.7198 57.1299 12.3268C58.1693 12.3084 59.2049 12.2938 60.2443 12.2754C60.6372 12.3782 61.0633 12.1689 61.4415 12.4039Z" fill="black"/>
<path d="M59.2531 6.63006C58.6581 6.63006 58.0632 6.61905 57.4682 6.63374C57.2038 6.64108 57.123 6.54192 57.1303 6.28851C57.1597 5.07656 56.9761 5.30426 58.1036 5.2859C59.0658 5.27121 60.028 5.29691 60.9902 5.27488C61.3208 5.26753 61.4456 5.34466 61.4383 5.7009C61.4273 6.62639 61.442 6.62639 60.5385 6.62639C60.1088 6.63006 59.6791 6.63006 59.2531 6.63006Z" fill="black"/>
<path d="M54.4792 9.56945C54.549 10.0432 54.3176 10.1314 53.8843 10.1203C52.8559 10.091 51.8276 10.1203 50.7993 10.124C50.6046 10.0542 50.2851 10.2342 50.2227 9.99915C50.1272 9.63923 50.1419 9.24259 50.2447 8.87166C50.2778 8.75047 50.421 8.77618 50.5238 8.7725C50.8287 8.76516 51.1335 8.76149 51.4383 8.75781C52.1655 8.91206 52.889 8.74679 53.6162 8.76516C54.4315 8.77985 54.4315 8.76516 54.4792 9.56945Z" fill="black"/>
<path d="M60.3365 11.863C59.4073 11.8593 58.4745 11.8409 57.5453 11.8556C57.2295 11.8593 57.1009 11.7748 57.1303 11.448C57.156 11.1615 57.134 10.8714 57.1303 10.5812C58.4671 10.5739 59.8039 10.5665 61.1408 10.5518C61.3685 10.5482 61.4346 10.6547 61.4419 10.8493C61.3574 11.1725 61.6109 11.6169 61.306 11.8079C61.06 11.9548 60.6633 11.8519 60.3365 11.863Z" fill="black"/>
<path d="M50.7945 10.5283C51.8485 10.5357 52.9026 10.565 53.9529 10.5467C54.3422 10.5393 54.4891 10.6275 54.4708 11.0462C54.4377 11.8505 54.4634 11.8505 53.6334 11.8541C52.5647 11.8578 51.496 11.8651 50.4273 11.8688C50.2767 11.8578 50.1665 11.8137 50.1775 11.6301C50.1849 11.4979 50.1775 11.362 50.1775 11.2261C50.1812 10.5797 50.1812 10.5797 50.7945 10.5283Z" fill="black"/>
</g>
<defs>
<clipPath id="clip0_65_290">
<rect width="73.4334" height="17.151" fill="white" transform="translate(0.79248)"/>
</clipPath>
</defs>
</svg>
