<svg width="115" height="27" viewBox="0 0 115 27" fill="none" xmlns="http://www.w3.org/2000/svg">
<path d="M40.8658 18.1371C39.6936 18.1371 38.6171 17.8599 37.6363 17.3053C36.6555 16.7508 35.878 15.9853 35.3038 15.0088C34.7297 14.0203 34.4426 12.9052 34.4426 11.6635C34.4426 10.4339 34.7297 9.33086 35.3038 8.3544C35.878 7.36588 36.6555 6.59435 37.6363 6.03981C38.6171 5.48528 39.6936 5.20801 40.8658 5.20801C42.05 5.20801 43.1265 5.48528 44.0953 6.03981C45.0761 6.59435 45.8476 7.36588 46.4098 8.3544C46.984 9.33086 47.271 10.4339 47.271 11.6635C47.271 12.9052 46.984 14.0203 46.4098 15.0088C45.8476 15.9853 45.0761 16.7508 44.0953 17.3053C43.1145 17.8599 42.038 18.1371 40.8658 18.1371ZM40.8658 15.8768C41.6194 15.8768 42.2832 15.708 42.8573 15.3705C43.4315 15.0209 43.88 14.5266 44.203 13.8877C44.5259 13.2488 44.6874 12.5074 44.6874 11.6635C44.6874 10.8197 44.5259 10.0843 44.203 9.45744C43.88 8.81852 43.4315 8.33029 42.8573 7.99274C42.2832 7.6552 41.6194 7.48643 40.8658 7.48643C40.1122 7.48643 39.4424 7.6552 38.8563 7.99274C38.2822 8.33029 37.8336 8.81852 37.5107 9.45744C37.1877 10.0843 37.0262 10.8197 37.0262 11.6635C37.0262 12.5074 37.1877 13.2488 37.5107 13.8877C37.8336 14.5266 38.2822 15.0209 38.8563 15.3705C39.4424 15.708 40.1122 15.8768 40.8658 15.8768Z" fill="black"/>
<path d="M51.6516 9.43936C51.9746 8.98126 52.4171 8.60153 52.9793 8.30015C53.5535 7.98672 54.2054 7.83 54.935 7.83C55.7842 7.83 56.5497 8.04096 57.2315 8.46289C57.9253 8.88482 58.4695 9.48758 58.8642 10.2712C59.2709 11.0427 59.4743 11.9408 59.4743 12.9655C59.4743 13.9902 59.2709 14.9003 58.8642 15.696C58.4695 16.4796 57.9253 17.0883 57.2315 17.5223C56.5497 17.9563 55.7842 18.1733 54.935 18.1733C54.2054 18.1733 53.5594 18.0226 52.9973 17.7212C52.4471 17.4199 51.9985 17.0401 51.6516 16.582V22.7844H49.1398V7.99274H51.6516V9.43936ZM56.9086 12.9655C56.9086 12.3627 56.783 11.8444 56.5318 11.4104C56.2926 10.9643 55.9696 10.6268 55.5629 10.3977C55.1682 10.1687 54.7376 10.0542 54.2711 10.0542C53.8166 10.0542 53.386 10.1747 52.9793 10.4158C52.5846 10.6449 52.2617 10.9824 52.0105 11.4285C51.7712 11.8745 51.6516 12.3989 51.6516 13.0017C51.6516 13.6044 51.7712 14.1288 52.0105 14.5748C52.2617 15.0209 52.5846 15.3645 52.9793 15.6056C53.386 15.8346 53.8166 15.9491 54.2711 15.9491C54.7376 15.9491 55.1682 15.8286 55.5629 15.5875C55.9696 15.3464 56.2926 15.0028 56.5318 14.5568C56.783 14.1107 56.9086 13.5803 56.9086 12.9655Z" fill="black"/>
<path d="M70.5396 12.7847C70.5396 13.1463 70.5157 13.4718 70.4678 13.7611H63.2014C63.2612 14.4844 63.5124 15.051 63.955 15.4609C64.3975 15.8708 64.9418 16.0757 65.5877 16.0757C66.5206 16.0757 67.1845 15.6719 67.5792 14.8642H70.2884C70.0013 15.8286 69.4511 16.6242 68.6378 17.2511C67.8244 17.8659 66.8256 18.1733 65.6415 18.1733C64.6846 18.1733 63.8234 17.9623 63.0579 17.5404C62.3043 17.1064 61.7122 16.4976 61.2816 15.7141C60.863 14.9305 60.6537 14.0263 60.6537 13.0017C60.6537 11.9649 60.863 11.0547 61.2816 10.2712C61.7003 9.48758 62.2864 8.88482 63.0399 8.46289C63.7935 8.04096 64.6607 7.83 65.6415 7.83C66.5864 7.83 67.4297 8.03494 68.1713 8.44481C68.9248 8.85469 69.505 9.43936 69.9116 10.1988C70.3303 10.9463 70.5396 11.8082 70.5396 12.7847ZM67.938 12.0614C67.9261 11.4104 67.6928 10.892 67.2383 10.5062C66.7838 10.1084 66.2276 9.90951 65.5697 9.90951C64.9477 9.90951 64.4214 10.1024 63.9908 10.4882C63.5722 10.8619 63.315 11.3863 63.2193 12.0614H67.938Z" fill="black"/>
<path d="M77.8812 7.84808C79.0653 7.84808 80.0222 8.22782 80.7519 8.98729C81.4815 9.73471 81.8463 10.7835 81.8463 12.1337V18.0106H79.3345V12.4773C79.3345 11.6816 79.1371 11.0728 78.7424 10.6509C78.3477 10.2169 77.8094 9.99992 77.1276 9.99992C76.4339 9.99992 75.8836 10.2169 75.477 10.6509C75.0822 11.0728 74.8849 11.6816 74.8849 12.4773V18.0106H72.373V7.99274H74.8849V9.24045C75.2198 8.80647 75.6444 8.46892 76.1588 8.22782C76.685 7.97466 77.2592 7.84808 77.8812 7.84808Z" fill="black"/>
<path d="M88.0386 18.1733C87.2253 18.1733 86.4956 18.0286 85.8497 17.7393C85.2038 17.4379 84.6895 17.0341 84.3067 16.5278C83.9359 16.0215 83.7326 15.4609 83.6967 14.8461H86.2265C86.2743 15.2319 86.4597 15.5513 86.7827 15.8045C87.1176 16.0576 87.5303 16.1842 88.0207 16.1842C88.4991 16.1842 88.8699 16.0878 89.1331 15.8949C89.4082 15.702 89.5457 15.4549 89.5457 15.1535C89.5457 14.828 89.3783 14.5869 89.0434 14.4302C88.7204 14.2614 88.2001 14.0806 87.4824 13.8877C86.7408 13.7069 86.1308 13.52 85.6524 13.3271C85.1859 13.1343 84.7792 12.8389 84.4323 12.4411C84.0974 12.0433 83.9299 11.5068 83.9299 10.8317C83.9299 10.2772 84.0854 9.77088 84.3964 9.31278C84.7194 8.85469 85.1739 8.49303 85.76 8.22782C86.3581 7.96261 87.0578 7.83 87.8592 7.83C89.0434 7.83 89.9883 8.13138 90.694 8.73414C91.3997 9.32484 91.7885 10.1265 91.8602 11.1391H89.456C89.4201 10.7413 89.2527 10.4279 88.9537 10.1988C88.6666 9.95773 88.2778 9.83718 87.7874 9.83718C87.3329 9.83718 86.9801 9.92157 86.7289 10.0903C86.4896 10.2591 86.37 10.4942 86.37 10.7956C86.37 11.1331 86.5375 11.3923 86.8724 11.5731C87.2073 11.7419 87.7276 11.9167 88.4333 12.0975C89.151 12.2783 89.7431 12.4652 90.2096 12.6581C90.6761 12.851 91.0768 13.1523 91.4117 13.5622C91.7586 13.96 91.938 14.4905 91.9499 15.1535C91.9499 15.7321 91.7885 16.2505 91.4655 16.7086C91.1545 17.1667 90.7 17.5284 90.1019 17.7936C89.5158 18.0467 88.8281 18.1733 88.0386 18.1733Z" fill="black"/>
<path d="M103.252 12.7847C103.252 13.1463 103.228 13.4718 103.18 13.7611H95.9137C95.9735 14.4844 96.2247 15.051 96.6672 15.4609C97.1098 15.8708 97.654 16.0757 98.2999 16.0757C99.2329 16.0757 99.8968 15.6719 100.291 14.8642H103.001C102.714 15.8286 102.163 16.6242 101.35 17.2511C100.537 17.8659 99.5379 18.1733 98.3538 18.1733C97.3969 18.1733 96.5357 17.9623 95.7701 17.5404C95.0166 17.1064 94.4245 16.4976 93.9939 15.7141C93.5753 14.9305 93.3659 14.0263 93.3659 13.0017C93.3659 11.9649 93.5753 11.0547 93.9939 10.2712C94.4125 9.48758 94.9986 8.88482 95.7522 8.46289C96.5058 8.04096 97.3729 7.83 98.3538 7.83C99.2987 7.83 100.142 8.03494 100.884 8.44481C101.637 8.85469 102.217 9.43936 102.624 10.1988C103.043 10.9463 103.252 11.8082 103.252 12.7847ZM100.65 12.0614C100.638 11.4104 100.405 10.892 99.9506 10.5062C99.4961 10.1084 98.9399 9.90951 98.282 9.90951C97.66 9.90951 97.1337 10.1024 96.7031 10.4882C96.2845 10.8619 96.0273 11.3863 95.9316 12.0614H100.65Z" fill="black"/>
<path d="M104.439 12.9655C104.439 11.9529 104.637 11.0547 105.031 10.2712C105.438 9.48758 105.982 8.88482 106.664 8.46289C107.358 8.04096 108.129 7.83 108.979 7.83C109.72 7.83 110.366 7.98069 110.916 8.28207C111.479 8.58345 111.927 8.96318 112.262 9.42128V7.99274H114.792V18.0106H112.262V16.5459C111.939 17.016 111.491 17.4078 110.916 17.7212C110.354 18.0226 109.702 18.1733 108.961 18.1733C108.123 18.1733 107.358 17.9563 106.664 17.5223C105.982 17.0883 105.438 16.4796 105.031 15.696C104.637 14.9003 104.439 13.9902 104.439 12.9655ZM112.262 13.0017C112.262 12.3868 112.142 11.8624 111.903 11.4285C111.664 10.9824 111.341 10.6449 110.934 10.4158C110.528 10.1747 110.091 10.0542 109.625 10.0542C109.158 10.0542 108.727 10.1687 108.333 10.3977C107.938 10.6268 107.615 10.9643 107.364 11.4104C107.125 11.8444 107.005 12.3627 107.005 12.9655C107.005 13.5682 107.125 14.0987 107.364 14.5568C107.615 15.0028 107.938 15.3464 108.333 15.5875C108.739 15.8286 109.17 15.9491 109.625 15.9491C110.091 15.9491 110.528 15.8346 110.934 15.6056C111.341 15.3645 111.664 15.0269 111.903 14.5929C112.142 14.1469 112.262 13.6165 112.262 13.0017Z" fill="black"/>
<g clip-path="url(#clip0_65_273)">
<path d="M26.9095 13.3717C26.9095 20.6517 21.0072 26.554 13.7272 26.554C6.44724 26.554 0.544922 20.6517 0.544922 13.3717C0.544922 6.09177 6.44724 0.189453 13.7272 0.189453C21.0087 0.189453 26.9095 6.09177 26.9095 13.3717Z" fill="black"/>
<path d="M7.04911 13.815L7.10598 13.7256L10.5352 8.36094C10.5853 8.2824 10.7032 8.29052 10.7411 8.37584C11.314 9.65977 11.8083 11.2566 11.5767 12.2507C11.4779 12.6597 11.207 13.2136 10.9022 13.7256C10.863 13.8001 10.8196 13.8732 10.7736 13.9436C10.7519 13.9761 10.7153 13.9951 10.6761 13.9951H7.14932C7.05451 13.9951 6.99899 13.8922 7.04911 13.815Z" fill="white"/>
<path d="M22.3338 14.8101V15.6593C22.3338 15.708 22.304 15.7513 22.2607 15.7703C21.9953 15.8841 21.0865 16.3012 20.7086 16.8267C19.7443 18.1689 19.0075 20.088 17.3606 20.088H10.49C8.05485 20.088 6.08154 18.1079 6.08154 15.6647V15.5861C6.08154 15.5211 6.13435 15.4683 6.19937 15.4683H10.0295C10.1053 15.4683 10.1609 15.5387 10.1541 15.6132C10.127 15.8624 10.1731 16.117 10.2909 16.3486C10.5184 16.8105 10.9897 17.0989 11.499 17.0989H13.3951V15.6186H11.5206C11.4245 15.6186 11.3676 15.5076 11.4231 15.429C11.4434 15.3979 11.4665 15.3654 11.4908 15.3288C11.6683 15.0769 11.9215 14.6855 12.1734 14.2399C12.3455 13.9392 12.512 13.6182 12.6461 13.2959C12.6732 13.2377 12.6949 13.1781 12.7165 13.1198C12.7531 13.0169 12.791 12.9207 12.8181 12.8246C12.8452 12.7433 12.8669 12.658 12.8885 12.5781C12.9522 12.3045 12.9793 12.0147 12.9793 11.714C12.9793 11.5962 12.9739 11.4729 12.963 11.3551C12.9576 11.2264 12.9414 11.0978 12.9251 10.9691C12.9143 10.8553 12.894 10.7429 12.8723 10.6251C12.8452 10.4531 12.8073 10.2825 12.7639 10.1104L12.749 10.0454C12.7165 9.9276 12.6895 9.81521 12.6515 9.69738C12.5445 9.32762 12.4213 8.96737 12.2913 8.63014C12.2439 8.49605 12.1897 8.3674 12.1355 8.23874C12.0556 8.04506 11.9743 7.869 11.8999 7.7024C11.862 7.62655 11.8294 7.55748 11.7969 7.48706C11.7604 7.40714 11.7225 7.32723 11.6845 7.25141C11.6574 7.19317 11.6263 7.13899 11.6046 7.08481L11.373 6.65683C11.3405 6.5986 11.3947 6.52952 11.4583 6.54713L12.9075 6.93988H12.9116C12.9143 6.93988 12.9156 6.94126 12.917 6.94126L13.1079 6.99406L13.3179 7.05367L13.3951 7.07532V6.21396C13.3951 5.79817 13.7282 5.46094 14.14 5.46094C14.3458 5.46094 14.5327 5.54491 14.6668 5.68169C14.8009 5.81849 14.8849 6.00539 14.8849 6.21396V7.49249L15.0393 7.5358C15.0515 7.53989 15.0636 7.5453 15.0745 7.55342C15.1124 7.58186 15.1666 7.62383 15.2356 7.67532C15.2898 7.71864 15.3481 7.77148 15.4185 7.82566C15.558 7.93805 15.7246 8.08297 15.9074 8.24957C15.9562 8.29154 16.0036 8.33489 16.0469 8.37823C16.2826 8.59764 16.5467 8.85496 16.7986 9.13938C16.869 9.21929 16.9381 9.30054 17.0085 9.38586C17.0789 9.47255 17.1534 9.55786 17.2184 9.6432C17.3038 9.75697 17.3959 9.87479 17.4758 9.99804C17.5137 10.0563 17.557 10.1159 17.5936 10.1741C17.6965 10.3298 17.7873 10.491 17.8739 10.6522C17.9105 10.7267 17.9484 10.8079 17.9809 10.8878C18.0771 11.1032 18.1529 11.3226 18.2017 11.542C18.2166 11.5894 18.2274 11.6409 18.2328 11.6869V11.6978C18.2491 11.7628 18.2545 11.8318 18.2599 11.9023C18.2816 12.1271 18.2708 12.3519 18.222 12.5781C18.2017 12.6743 18.1746 12.765 18.1421 12.8612C18.1096 12.9533 18.0771 13.0494 18.0351 13.1401C17.9539 13.3284 17.8577 13.5167 17.7439 13.6927C17.7073 13.7577 17.664 13.8268 17.6207 13.8918C17.5733 13.9609 17.5245 14.0259 17.4812 14.0896C17.4216 14.1708 17.3579 14.2561 17.2929 14.332C17.2347 14.4119 17.1751 14.4918 17.1101 14.5622C17.0193 14.6692 16.9327 14.7708 16.8419 14.8683C16.7878 14.932 16.7295 14.997 16.6699 15.0552C16.6117 15.1202 16.5521 15.1784 16.4979 15.2326C16.4072 15.3234 16.3313 15.3938 16.2677 15.452L16.1187 15.5888C16.097 15.6078 16.0686 15.6186 16.0388 15.6186H14.8849V17.0989H16.3367C16.6618 17.0989 16.9706 16.9838 17.2198 16.7725C17.3051 16.698 17.6776 16.3757 18.1177 15.8895C18.1326 15.8732 18.1516 15.8611 18.1733 15.8556L22.1835 14.6963C22.258 14.6746 22.3338 14.7315 22.3338 14.8101Z" fill="white"/>
</g>
<defs>
<clipPath id="clip0_65_273">
<rect width="26.3646" height="26.3646" fill="white" transform="translate(0.544922 0.1875)"/>
</clipPath>
</defs>
</svg>
