<svg width="48" height="29" viewBox="0 0 48 29" fill="none" xmlns="http://www.w3.org/2000/svg">
<path d="M13.8749 10.8152C13.861 11.2803 13.9225 11.7445 14.0571 12.1899C14.1902 12.5735 14.3564 12.9448 14.554 13.2995C14.6246 13.4022 14.6647 13.5228 14.6699 13.6473C14.6612 13.7429 14.6296 13.835 14.5777 13.9157C14.5258 13.9964 14.4551 14.0634 14.3718 14.111L13.3946 14.7569C13.2784 14.84 13.1399 14.8861 12.9972 14.8894C12.9091 14.888 12.8223 14.8681 12.7424 14.831C12.6626 14.7939 12.5914 14.7405 12.5334 14.6741C12.3189 14.4592 12.13 14.2203 11.9703 13.962C11.8213 13.697 11.6722 13.3989 11.5066 13.0511C10.9633 13.7298 10.2719 14.2752 9.48538 14.6456C8.69881 15.0159 7.83793 15.2013 6.96865 15.1876C6.40708 15.2179 5.84512 15.1353 5.31601 14.9447C4.7869 14.7541 4.30137 14.4594 3.88815 14.0779C3.5037 13.6899 3.20485 13.2256 3.01087 12.715C2.81689 12.2044 2.7321 11.6587 2.76194 11.1133C2.74187 10.5131 2.8564 9.91595 3.09712 9.36572C3.33785 8.81549 3.69867 8.32611 4.15314 7.93347C5.23246 7.09213 6.57922 6.66869 7.9458 6.74102C8.49997 6.73856 9.05356 6.77731 9.60198 6.85695C10.1816 6.93976 10.7613 7.05569 11.3741 7.18818V6.06198C11.4626 5.17583 11.201 4.2902 10.6454 3.59427C9.92932 3.04144 9.02752 2.78633 8.12798 2.88211C7.57013 2.88474 7.01443 2.95143 6.47179 3.08085C5.90699 3.21488 5.3533 3.39206 4.81561 3.61083L4.26907 3.80957H4.03721C3.80534 3.80957 3.70597 3.64395 3.70597 3.32928V2.56743C3.69129 2.38507 3.7256 2.20211 3.80534 2.03745C3.92856 1.89587 4.08116 1.78283 4.25251 1.70622C4.87259 1.40788 5.52199 1.17477 6.19024 1.01062C6.97463 0.808637 7.78175 0.708442 8.59171 0.712506C10.0518 0.585233 11.5033 1.03735 12.6328 1.97121C13.0967 2.48045 13.4496 3.08058 13.6691 3.73349C13.8886 4.3864 13.97 5.07783 13.9081 5.76387L13.8749 10.8152ZM7.61456 13.167C8.1786 13.1678 8.73867 13.0726 9.27075 12.8855C9.83745 12.692 10.3411 12.3486 10.7282 11.8917C10.9837 11.6154 11.1659 11.2795 11.2582 10.9146C11.3652 10.4757 11.4153 10.0248 11.4072 9.57309V8.87749C10.9206 8.77638 10.4284 8.70448 9.93322 8.66219C9.43636 8.66219 8.95607 8.66219 8.47578 8.66219C7.6661 8.59723 6.85882 8.81367 6.19024 9.27498C5.93187 9.49247 5.72828 9.76771 5.59593 10.0784C5.46359 10.3892 5.4062 10.7267 5.4284 11.0637C5.40114 11.3637 5.43717 11.6662 5.53417 11.9515C5.63117 12.2368 5.78697 12.4986 5.9915 12.7198C6.45197 13.0779 7.03567 13.2387 7.61456 13.167ZM20.0194 14.8232C19.8095 14.8427 19.5992 14.7901 19.4232 14.6741C19.255 14.5068 19.1398 14.2937 19.0919 14.0613L15.4814 2.13682C15.408 1.93427 15.3634 1.72242 15.3489 1.50747C15.3489 1.25905 15.4649 1.12655 15.7133 1.12655H17.237C17.4469 1.10703 17.6572 1.15961 17.8332 1.27561C17.9945 1.44559 18.1037 1.65825 18.1479 1.8884L20.7481 12.1899L23.1827 1.90496C23.2081 1.67233 23.3135 1.45574 23.4808 1.29217C23.663 1.17612 23.8785 1.12371 24.0936 1.14311H25.3357C25.5561 1.12371 25.7768 1.17599 25.9651 1.29217C26.1204 1.46414 26.2237 1.67662 26.2632 1.90496L28.6647 12.1899L31.3311 1.85527C31.3753 1.62513 31.4845 1.41246 31.6458 1.24249C31.8218 1.12648 32.0321 1.07391 32.242 1.09343H33.6829C33.7342 1.08826 33.786 1.09456 33.8346 1.11187C33.8831 1.12919 33.9272 1.15708 33.9637 1.19354C34.0002 1.23 34.0281 1.27411 34.0454 1.32268C34.0627 1.37124 34.069 1.42305 34.0638 1.47435C34.07 1.55704 34.07 1.64009 34.0638 1.72278C34.0638 1.72278 34.0638 1.93808 33.9644 2.1037L30.2215 14.0282C30.1773 14.2584 30.0681 14.471 29.9068 14.641C29.7288 14.7525 29.5201 14.8046 29.3106 14.7901H27.9856C27.7678 14.8132 27.5493 14.7542 27.3728 14.6245C27.2087 14.4586 27.1039 14.2432 27.0747 14.0117L24.6733 4.07456L22.2883 14.0117C22.2591 14.2432 22.1544 14.4586 21.9902 14.6245C21.8124 14.7513 21.595 14.8101 21.3774 14.7901L20.0194 14.8232ZM39.8936 15.2207C39.0911 15.2245 38.2908 15.1356 37.5087 14.9557C36.8931 14.8321 36.297 14.626 35.7366 14.3429C35.5384 14.2485 35.3717 14.099 35.2563 13.9123C35.1919 13.7719 35.1581 13.6195 35.1569 13.4651V12.6867C35.1569 12.372 35.2728 12.2064 35.5047 12.2064C35.6034 12.1906 35.7041 12.1906 35.8028 12.2064L36.1837 12.372C36.7146 12.6092 37.27 12.787 37.8399 12.902C38.4439 13.0335 39.0602 13.1002 39.6783 13.1008C40.4628 13.1496 41.2448 12.9713 41.9307 12.5873C42.1797 12.4359 42.3844 12.2213 42.524 11.9654C42.6636 11.7095 42.7331 11.4213 42.7257 11.1299C42.7335 10.9317 42.7008 10.734 42.6297 10.5489C42.5585 10.3638 42.4502 10.1952 42.3116 10.0534C41.8633 9.66483 41.3301 9.38688 40.7548 9.24185L38.5189 8.52969C37.5517 8.28653 36.6872 7.74116 36.0512 6.97288C35.5511 6.32812 35.2775 5.53645 35.2728 4.72047C35.2638 4.14172 35.4065 3.57069 35.6869 3.06429C35.9639 2.56658 36.3419 2.13222 36.7965 1.78903C37.2944 1.42339 37.856 1.15379 38.4527 0.994057C39.0878 0.811093 39.7461 0.721822 40.407 0.729068C40.7488 0.704923 41.092 0.704923 41.4338 0.729068L42.4441 0.894687L43.3219 1.14311L43.9678 1.4081C44.1411 1.51044 44.2975 1.63893 44.4315 1.78903C44.5238 1.94399 44.5698 2.12216 44.564 2.30244V3.03116C44.564 3.3624 44.4481 3.52802 44.2162 3.52802C44.0058 3.50393 43.8028 3.43624 43.62 3.32928C42.68 2.92074 41.6637 2.71748 40.6389 2.73305C39.9287 2.69861 39.2217 2.84687 38.5852 3.16366C38.3489 3.30753 38.1562 3.51304 38.0278 3.75814C37.8994 4.00323 37.8402 4.27865 37.8565 4.55485C37.8557 4.75896 37.8964 4.96109 37.9762 5.14899C38.0559 5.33688 38.1729 5.50663 38.3202 5.64793C38.8091 6.03918 39.3726 6.32659 39.9764 6.49259L42.1626 7.18818C43.0893 7.43406 43.9204 7.9535 44.5475 8.67875C45.0223 9.30119 45.2732 10.0656 45.2596 10.8484C45.2695 11.4675 45.1333 12.0803 44.8621 12.637C44.5961 13.1703 44.2107 13.635 43.7359 13.9951C43.2446 14.3901 42.6825 14.688 42.0797 14.8729C41.3568 15.1053 40.6032 15.2281 39.8439 15.2372L39.8936 15.2207Z" fill="black"/>
<path fill-rule="evenodd" clip-rule="evenodd" d="M42.7587 22.8393C37.2155 26.6062 30.663 28.6095 23.961 28.5863C15.4874 28.6321 7.30169 25.5137 1.00631 19.8416C0.526016 19.411 1.00631 18.8148 1.53629 19.146C8.52349 23.1494 16.4382 25.2508 24.491 25.2408C30.5106 25.2163 36.4659 24.0005 42.0134 21.6634C42.8746 21.299 43.6034 22.2265 42.7587 22.8393Z" fill="black"/>
<path fill-rule="evenodd" clip-rule="evenodd" d="M44.8788 20.4721C44.2163 19.6274 40.5727 20.0746 38.9331 20.2733C38.4362 20.2733 38.37 19.8924 38.8172 19.5777C41.7155 17.5406 46.4853 18.1203 47.0981 18.8159C47.7109 19.5115 46.949 24.2813 44.2163 26.5668C43.8023 26.9146 43.4048 26.7159 43.587 26.2687C44.1501 24.6953 45.5247 21.267 44.8788 20.4721Z" fill="black"/>
</svg>
