<svg width="110" height="38" viewBox="0 0 110 38" fill="none" xmlns="http://www.w3.org/2000/svg">
<path d="M35.1912 24.5996V12.6902H42.6578V14.2371H36.9881V17.8657H42.2682V19.4067H36.9881V23.0528H42.7276V24.5996H35.1912ZM49.0879 15.6676V17.0632H44.209V15.6676H49.0879ZM45.5174 13.5276H47.2561V21.977C47.2561 22.3143 47.3065 22.5682 47.4073 22.7388C47.5081 22.9055 47.638 23.0198 47.797 23.0819C47.9598 23.14 48.1362 23.1691 48.3261 23.1691C48.4657 23.1691 48.5878 23.1594 48.6925 23.14C48.7972 23.1206 48.8786 23.1051 48.9367 23.0935L49.2507 24.5298C49.1499 24.5686 49.0065 24.6074 48.8204 24.6461C48.6343 24.6888 48.4017 24.712 48.1226 24.7159C47.6651 24.7237 47.2387 24.6423 46.8433 24.4717C46.4478 24.3011 46.128 24.0375 45.8838 23.6808C45.6395 23.3242 45.5174 22.8764 45.5174 22.3375V13.5276ZM52.9419 19.2962V24.5996H51.2032V12.6902H52.9186V17.1214H53.0291C53.2385 16.6406 53.5583 16.2588 53.9886 15.9758C54.4189 15.6928 54.9811 15.5513 55.675 15.5513C56.2875 15.5513 56.8225 15.6773 57.28 15.9293C57.7413 16.1812 58.098 16.5573 58.35 17.0574C58.6058 17.5536 58.7338 18.1739 58.7338 18.9182V24.5996H56.995V19.1276C56.995 18.4724 56.8264 17.9645 56.4891 17.604C56.1518 17.2396 55.6828 17.0574 55.0819 17.0574C54.6709 17.0574 54.3026 17.1446 53.977 17.3191C53.6552 17.4935 53.4013 17.7494 53.2152 18.0867C53.033 18.4201 52.9419 18.8232 52.9419 19.2962ZM64.9036 24.7799C64.0236 24.7799 63.2657 24.5919 62.6299 24.2158C61.998 23.8359 61.5095 23.3028 61.1645 22.6167C60.8233 21.9266 60.6527 21.1183 60.6527 20.1917C60.6527 19.2768 60.8233 18.4705 61.1645 17.7726C61.5095 17.0748 61.9902 16.5301 62.6066 16.1386C63.2269 15.747 63.9519 15.5513 64.7815 15.5513C65.2855 15.5513 65.7739 15.6346 66.2469 15.8013C66.7199 15.968 67.1444 16.2297 67.5204 16.5864C67.8965 16.943 68.193 17.4063 68.4101 17.9762C68.6272 18.5422 68.7358 19.2303 68.7358 20.0405V20.657H61.6355V19.3544H67.0319C67.0319 18.8969 66.9389 18.4918 66.7528 18.139C66.5667 17.7823 66.3051 17.5013 65.9678 17.2958C65.6344 17.0903 65.2428 16.9876 64.7931 16.9876C64.3046 16.9876 63.8782 17.1078 63.5138 17.3481C63.1533 17.5846 62.8741 17.8948 62.6764 18.2786C62.4826 18.6585 62.3857 19.0714 62.3857 19.5172V20.5348C62.3857 21.1319 62.4903 21.6397 62.6997 22.0584C62.9129 22.4771 63.2095 22.7969 63.5894 23.0179C63.9693 23.235 64.4132 23.3435 64.9211 23.3435C65.2506 23.3435 65.551 23.297 65.8224 23.204C66.0938 23.1071 66.3283 22.9636 66.526 22.7737C66.7237 22.5837 66.8749 22.3492 66.9796 22.07L68.6253 22.3666C68.4935 22.8512 68.257 23.2757 67.9158 23.6401C67.5786 24.0007 67.1541 24.2817 66.6423 24.4833C66.1345 24.681 65.5549 24.7799 64.9036 24.7799ZM70.6649 24.5996V15.6676H72.3455V17.0865H72.4386C72.6014 16.6057 72.8883 16.2278 73.2992 15.9525C73.714 15.6734 74.1831 15.5338 74.7065 15.5338C74.815 15.5338 74.9429 15.5377 75.0903 15.5455C75.2414 15.5532 75.3597 15.5629 75.445 15.5745V17.2377C75.3752 17.2183 75.2511 17.197 75.0728 17.1737C74.8945 17.1466 74.7161 17.133 74.5378 17.133C74.1269 17.133 73.7605 17.2202 73.4388 17.3947C73.1209 17.5652 72.8689 17.8037 72.6828 18.1099C72.4967 18.4123 72.4037 18.7573 72.4037 19.145V24.5996H70.6649ZM80.4794 24.7799C79.5994 24.7799 78.8415 24.5919 78.2057 24.2158C77.5738 23.8359 77.0853 23.3028 76.7403 22.6167C76.3991 21.9266 76.2286 21.1183 76.2286 20.1917C76.2286 19.2768 76.3991 18.4705 76.7403 17.7726C77.0853 17.0748 77.566 16.5301 78.1825 16.1386C78.8027 15.747 79.5277 15.5513 80.3573 15.5513C80.8613 15.5513 81.3498 15.6346 81.8227 15.8013C82.2957 15.968 82.7202 16.2297 83.0962 16.5864C83.4723 16.943 83.7689 17.4063 83.986 17.9762C84.203 18.5422 84.3116 19.2303 84.3116 20.0405V20.657H77.2113V19.3544H82.6078C82.6078 18.8969 82.5147 18.4918 82.3286 18.139C82.1426 17.7823 81.8809 17.5013 81.5436 17.2958C81.2102 17.0903 80.8186 16.9876 80.3689 16.9876C79.8805 16.9876 79.454 17.1078 79.0896 17.3481C78.7291 17.5846 78.4499 17.8948 78.2522 18.2786C78.0584 18.6585 77.9615 19.0714 77.9615 19.5172V20.5348C77.9615 21.1319 78.0661 21.6397 78.2755 22.0584C78.4887 22.4771 78.7853 22.7969 79.1652 23.0179C79.5451 23.235 79.989 23.3435 80.4969 23.3435C80.8264 23.3435 81.1268 23.297 81.3982 23.204C81.6696 23.1071 81.9041 22.9636 82.1018 22.7737C82.2996 22.5837 82.4508 22.3492 82.5554 22.07L84.2011 22.3666C84.0693 22.8512 83.8328 23.2757 83.4917 23.6401C83.1544 24.0007 82.7299 24.2817 82.2182 24.4833C81.7103 24.681 81.1307 24.7799 80.4794 24.7799ZM91.8989 20.8954V15.6676H93.6434V24.5996H91.9338V23.0528H91.8407C91.6353 23.5296 91.3057 23.927 90.8522 24.2449C90.4025 24.5589 89.8423 24.7159 89.1716 24.7159C88.5978 24.7159 88.09 24.5899 87.648 24.3379C87.21 24.0821 86.8649 23.7041 86.6129 23.204C86.3648 22.7039 86.2408 22.0855 86.2408 21.349V15.6676H87.9795V21.1396C87.9795 21.7483 88.1481 22.2329 88.4854 22.5934C88.8227 22.9539 89.2608 23.1342 89.7996 23.1342C90.1253 23.1342 90.449 23.0528 90.7707 22.89C91.0964 22.7271 91.3658 22.481 91.5791 22.1514C91.7961 21.8219 91.9028 21.4032 91.8989 20.8954ZM95.9797 24.5996V15.6676H97.6486V17.1214H97.7591C97.9452 16.629 98.2495 16.2452 98.6721 15.97C99.0946 15.6908 99.6005 15.5513 100.19 15.5513C100.787 15.5513 101.287 15.6908 101.69 15.97C102.097 16.2491 102.398 16.6329 102.591 17.1214H102.684C102.898 16.6445 103.237 16.2646 103.702 15.9816C104.167 15.6947 104.722 15.5513 105.365 15.5513C106.176 15.5513 106.836 15.8052 107.348 16.3131C107.864 16.8209 108.122 17.5866 108.122 18.61V24.5996H106.383V18.7729C106.383 18.1681 106.218 17.73 105.889 17.4586C105.559 17.1873 105.166 17.0516 104.708 17.0516C104.142 17.0516 103.702 17.226 103.388 17.5749C103.074 17.92 102.917 18.3639 102.917 18.9066V24.5996H101.184V18.6624C101.184 18.1778 101.033 17.7882 100.731 17.4935C100.428 17.1989 100.035 17.0516 99.5501 17.0516C99.2206 17.0516 98.9163 17.1388 98.6372 17.3133C98.3619 17.4838 98.139 17.7223 97.9684 18.0285C97.8017 18.3348 97.7184 18.6895 97.7184 19.0927V24.5996H95.9797Z" fill="black"/>
<path d="M11.6365 0.0820312L11.3862 0.932825V25.6209L11.6365 25.8707L23.0965 19.0968L11.6365 0.0820312Z" fill="black"/>
<path d="M11.6372 0.0820312L0.177246 19.0968L11.6372 25.8708V13.888V0.0820312Z" fill="black"/>
<path d="M11.6359 28.041L11.4949 28.213V37.0074L11.6359 37.4195L23.1027 21.2705L11.6359 28.041Z" fill="black"/>
<path d="M11.6372 37.4195V28.041L0.177246 21.2705L11.6372 37.4195Z" fill="black"/>
<path d="M11.6375 25.8733L23.0972 19.0995L11.6375 13.8906V25.8733Z" fill="black"/>
<path d="M0.177246 19.0995L11.637 25.8733V13.8906L0.177246 19.0995Z" fill="black"/>
</svg>
