<svg width="117" height="25" viewBox="0 0 117 25" fill="none" xmlns="http://www.w3.org/2000/svg">
<path d="M5.73522 12.5682L3.11973 15.1847L0.479004 12.5682L3.11876 9.92848L5.73522 12.5682ZM12.1293 6.17418L16.634 10.679L19.2748 8.04017L12.1293 0.917969L4.98378 8.06347L7.62451 10.7023L12.1293 6.17418ZM21.1398 9.92848L18.5233 12.5682L21.1631 15.208L23.8019 12.5682L21.1398 9.92848ZM12.1293 18.9623L7.62451 14.4342L4.98378 17.074L12.1293 24.2185L19.2748 17.073L16.634 14.4342L12.1293 18.9623ZM12.1293 15.1857L14.769 12.5449L12.1293 9.92946L9.48952 12.5682L12.1293 15.1847V15.1857ZM39.8899 15.4575V15.4128C39.8899 13.7061 38.9793 12.8411 37.5007 12.2721C38.4104 11.7721 39.1841 10.9518 39.1841 9.51878V9.47412C39.1841 7.47125 37.5686 6.17418 34.9745 6.17418H29.0358V18.94H35.1114C38.0007 18.9623 39.8899 17.7788 39.8899 15.4585V15.4575ZM36.3851 9.99742C36.3851 10.9527 35.6114 11.3391 34.3599 11.3391H31.7668V8.63142H34.5425C35.7259 8.63142 36.3851 9.10908 36.3851 9.95178V9.99742ZM37.091 15.0944C37.091 16.0497 36.3405 16.4827 35.1104 16.4827H31.7668V13.6828H35.0201C36.4541 13.6828 37.091 14.207 37.091 15.0711V15.0944ZM45.783 18.9623V6.17418H42.9617V18.94H45.783V18.9623ZM60.8925 18.9623V6.17418H58.1158V14.0478L52.1315 6.17418H49.5373V18.94H52.314V10.8391L58.5032 18.9623H60.8915H60.8925ZM76.4553 18.9623L70.9729 6.10622H68.3797L62.8953 18.9623H65.7856L66.9458 16.0954H72.3389L73.499 18.9623H76.4572H76.4553ZM71.336 13.6148H67.9457L69.6525 9.47412L71.336 13.6148ZM89.8589 18.9623V6.17418H87.0823V14.0478L81.0979 6.17418H78.5038V18.94H81.2804V10.8391L87.4697 18.9623H89.858H89.8589ZM104.353 16.8915L102.556 15.0944C101.554 16.0041 100.667 16.5954 99.1879 16.5954C97.0035 16.5954 95.4792 14.775 95.4792 12.5906V12.5226C95.4792 10.3382 97.0258 8.54113 99.1879 8.54113C100.462 8.54113 101.464 9.08675 102.465 9.97411L104.262 7.90328C103.079 6.74311 101.645 5.9237 99.2335 5.9237C95.32 5.9237 92.5666 8.90423 92.5666 12.5226V12.5682C92.5666 16.2313 95.3647 19.1439 99.1199 19.1439C101.577 19.1672 103.033 18.3021 104.353 16.8915ZM116.345 18.9623V16.4594H109.404V13.774H115.434V11.2712H109.404V8.67705H116.254V6.17418H106.629V18.94H116.345V18.9623Z" fill="black"/>
</svg>
